<?xml version="1.0" encoding="UTF-8" standalone="no"?>
<!-- Created with Inkscape (http://www.inkscape.org/) -->

<svg
   width="150.00011mm"
   height="179.99574mm"
   viewBox="0 0 150.00011 179.99574"
   version="1.1"
   id="svg1"
   xmlns="http://www.w3.org/2000/svg"
   xmlns:svg="http://www.w3.org/2000/svg">
  <defs
     id="defs1" />
  <g
     id="layer1"
     transform="translate(-204.23156,-112.66488)">
    <g
       id="g7">
      <path
         id="path3-4"
         style="vector-effect:non-scaling-stroke;fill:none;stroke:#000000;stroke-width:0.0793585;stroke-linecap:square;stroke-linejoin:round;stroke-dasharray:0.634871, 0.0793585;-inkscape-stroke:hairline;paint-order:stroke fill markers"
         d="m 283.13162,187.66495 a 3.9000001,3.9000001 0 0 1 -3.9,3.9 3.9000001,3.9000001 0 0 1 -3.9,-3.9 3.9000001,3.9000001 0 0 1 3.9,-3.9 3.9000001,3.9000001 0 0 1 3.9,3.9 z" />
      <path
         id="rect4"
         style="vector-effect:non-scaling-stroke;fill:none;stroke:#000000;stroke-width:0.264583;stroke-linecap:square;stroke-linejoin:round;-inkscape-stroke:hairline;paint-order:stroke fill markers"
         d="m 332.17881,283.90321 2.60849,-1.48183 4.41672,7.778 c 0.009,-0.0888 0.0142,-0.18299 0.0138,-0.27829 l -0.22192,-57.26041 c 9.81996,-12.95145 15.16688,-28.74249 15.23576,-44.9957 2e-5,-20.17351 -7.96483,-38.48679 -20.91903,-51.96932 l -7.06868,7.06838 -1.06066,-1.06066 -1.06067,-1.06066 7.06832,-7.06854 c -13.48161,-12.94841 -31.79082,-20.90932 -51.95933,-20.9093 h 2e-5 c -20.15255,-2e-5 -38.44871,7.94828 -51.94581,20.89637 l 7.04983,7.0864 v 0 l -1.06066,1.06066 -1.06066,1.06067 -7.06438,-7.07276 c -12.95206,13.47849 -20.91841,31.79331 -20.91839,51.96873 0.0687,16.25315 5.41546,32.04418 15.23524,44.9957 l -0.22735,57.26041 c -3.6e-4,0.0904 0.004,0.17978 0.0131,0.26933 l 4.41633,-7.7707 2.60849,1.48182 -4.93724,8.69097 c 0.20314,0.0431 0.41266,0.0681 0.62803,0.0681 l -4e-5,3e-5 h 114.52077 c 0.2105,0 0.41541,-0.0238 0.62078,-0.0657 z" />
    </g>
  </g>
</svg>
