<?xml version="1.0" encoding="UTF-8" standalone="no"?>
<!-- Created with Inkscape (http://www.inkscape.org/) -->

<svg
   width="102.00001mm"
   height="102mm"
   viewBox="0 0 102.00001 102"
   version="1.1"
   id="svg1"
   xmlns="http://www.w3.org/2000/svg"
   xmlns:svg="http://www.w3.org/2000/svg">
  <defs
     id="defs1" />
  <g
     id="layer1"
     transform="translate(-306.43458,-13.451004)">
    <g
       id="g6"
       transform="translate(78.951416,-48.775426)">
      <g
         transform="translate(278.48319,113.22643)"
         info="N:100; Pitch:3.141592653589793; Pressure Angle: 20.0"
         id="g80"
         style="vector-effect:non-scaling-stroke;stroke-width:0.264583;stroke-dasharray:none;-inkscape-stroke:hairline">
        <path
           style="vector-effect:non-scaling-stroke;fill:none;stroke:#000000;stroke-width:0.264583;stroke-dasharray:none;-inkscape-stroke:hairline"
           d="m 48.9877,-1.0972 0.4025,0.1157 0.4025,0.1279 0.4022,0.1393 0.402,0.1501 0.4015,0.1606 L 51,0 l -0.0016,0.4036 -0.4015,0.1606 -0.402,0.1501 -0.4022,0.1393 -0.4025,0.1279 -0.4025,0.1157 -0.0119,0.4419 -0.0159,0.4418 0.3945,0.1408 0.3936,0.1529 0.3927,0.1642 0.3917,0.1751 0.3907,0.1855 -0.0237,0.4029 -0.027,0.4027 -0.4108,0.1351 -0.4106,0.1246 -0.4102,0.1137 -0.4096,0.1024 -0.409,0.0902 -0.0397,0.4403 -0.0436,0.4399 0.3849,0.1653 0.3832,0.1773 0.3816,0.1886 0.38,0.1993 0.3782,0.2097 -0.049,0.4006 -0.0521,0.4002 -0.4185,0.109 -0.4176,0.0986 -0.4165,0.0878 -0.4153,0.0764 -0.4139,0.0643 -0.0672,0.437 -0.0711,0.4363 0.3737,0.1891 0.3714,0.201 0.369,0.2122 0.3667,0.2228 0.3643,0.233 -0.0741,0.3967 -0.0771,0.3962 -0.4246,0.0825 -0.4229,0.0722 -0.4212,0.0614 -0.4193,0.0502 -0.4171,0.0382 -0.0945,0.4319 -0.0984,0.431 0.3611,0.2122 0.358,0.2239 0.355,0.235 0.352,0.2454 0.349,0.2554 -0.0989,0.3913 -0.1019,0.3905 -0.4288,0.0557 -0.4267,0.0455 -0.4242,0.0348 -0.4216,0.0238 -0.4187,0.012 -0.1214,0.4251 -0.1253,0.4239 0.3471,0.2345 0.3432,0.246 0.3395,0.2567 0.3359,0.267 0.3323,0.2768 -0.1232,0.3844 -0.1263,0.3833 -0.4315,0.0287 -0.4286,0.0186 -0.4256,0.0081 -0.4223,-0.0028 -0.4186,-0.0143 -0.1478,0.4167 -0.1517,0.4152 0.3317,0.2558 0.3271,0.267 0.3227,0.2776 0.3185,0.2876 0.3142,0.2971 -0.1471,0.3759 -0.1501,0.3746 -0.4324,0.0015 -0.429,-0.0083 -0.4253,-0.0186 -0.4212,-0.0293 -0.4169,-0.0406 -0.1737,0.4065 -0.1774,0.405 0.3149,0.2761 0.3097,0.287 0.3047,0.2973 0.2997,0.307 0.295,0.3163 -0.1704,0.3658 -0.1733,0.3645 -0.4317,-0.0256 -0.4276,-0.0353 -0.4233,-0.0452 -0.4185,-0.0557 -0.4136,-0.0667 -0.1989,0.3948 -0.2025,0.393 0.297,0.2954 0.2911,0.3059 0.2854,0.3158 0.2799,0.3252 0.2745,0.3342 -0.1931,0.3544 -0.1958,0.3529 -0.4292,-0.0527 -0.4246,-0.062 -0.4196,-0.0718 -0.4142,-0.0818 -0.4085,-0.0925 -0.2233,0.3815 -0.2268,0.3795 0.2779,0.3135 0.2712,0.3235 0.265,0.3331 0.2589,0.3422 0.253,0.3507 -0.2149,0.3417 -0.2176,0.3399 -0.4251,-0.0796 -0.4198,-0.0886 -0.4142,-0.0979 -0.4083,-0.1077 -0.4019,-0.118 -0.2469,0.3668 -0.2501,0.3645 0.2576,0.3302 0.2505,0.34 0.2435,0.3491 0.2369,0.3577 0.2305,0.366 -0.2359,0.3274 -0.2386,0.3256 -0.4192,-0.1061 -0.4134,-0.1148 -0.4073,-0.1237 -0.4007,-0.1331 -0.3937,-0.143 -0.2694,0.3505 -0.2725,0.3481 0.2363,0.3458 0.2286,0.355 0.2212,0.3637 0.214,0.3719 0.207,0.3797 -0.256,0.312 -0.2585,0.31 -0.4118,-0.1322 -0.4054,-0.1405 -0.3987,-0.1491 -0.3916,-0.158 -0.3839,-0.1674 -0.2909,0.3329 -0.2938,0.3303 0.2142,0.3599 0.2058,0.3687 0.1979,0.3769 0.1902,0.3846 0.1828,0.3919 -0.2751,0.2953 -0.2774,0.2931 -0.4027,-0.1578 -0.3958,-0.1657 -0.3885,-0.1738 -0.3809,-0.1823 -0.3727,-0.1912 -0.3112,0.314 -0.314,0.3112 0.1912,0.3727 0.1823,0.3809 0.1738,0.3885 0.1657,0.3958 0.1578,0.4027 -0.2931,0.2774 -0.2953,0.2751 -0.3919,-0.1828 -0.3846,-0.1902 -0.3769,-0.1979 -0.3687,-0.2058 -0.3599,-0.2142 -0.3303,0.2938 -0.3329,0.2909 0.1674,0.3839 0.158,0.3916 0.1491,0.3987 0.1405,0.4054 0.1322,0.4118 -0.31,0.2585 -0.312,0.256 -0.3797,-0.207 -0.3719,-0.214 -0.3637,-0.2212 -0.355,-0.2286 -0.3458,-0.2363 -0.3481,0.2725 -0.3505,0.2694 0.143,0.3937 0.1331,0.4007 0.1237,0.4073 0.1148,0.4134 0.1061,0.4192 -0.3256,0.2386 -0.3274,0.2359 -0.366,-0.2305 -0.3577,-0.2369 -0.3491,-0.2435 -0.34,-0.2505 -0.3302,-0.2576 -0.3645,0.2501 -0.3668,0.2469 0.118,0.4019 0.1077,0.4083 0.0979,0.4142 0.0886,0.4198 0.0796,0.4251 -0.3399,0.2176 -0.3417,0.2149 -0.3507,-0.253 -0.3422,-0.2589 -0.3331,-0.265 -0.3235,-0.2712 -0.3135,-0.2779 -0.3795,0.2268 -0.3815,0.2233 0.0925,0.4085 0.0818,0.4142 0.0718,0.4196 0.062,0.4246 0.0527,0.4292 -0.3529,0.1958 -0.3544,0.1931 -0.3342,-0.2745 -0.3252,-0.2799 -0.3158,-0.2854 -0.3059,-0.2911 -0.2954,-0.297 -0.393,0.2025 -0.3948,0.1989 0.0667,0.4136 0.0557,0.4185 0.0452,0.4233 0.0353,0.4276 0.0256,0.4317 -0.3645,0.1733 -0.3658,0.1704 -0.3163,-0.295 -0.307,-0.2997 -0.2973,-0.3047 -0.287,-0.3097 -0.2761,-0.3149 -0.405,0.1774 -0.4065,0.1737 0.0406,0.4169 0.0293,0.4212 0.0186,0.4253 0.0083,0.429 -0.0015,0.4324 -0.3746,0.1501 -0.3759,0.1471 -0.2971,-0.3142 -0.2876,-0.3185 -0.2776,-0.3227 -0.267,-0.3271 -0.2558,-0.3317 -0.4152,0.1517 -0.4167,0.1478 0.0143,0.4186 0.0028,0.4223 -0.0081,0.4256 -0.0186,0.4286 -0.0287,0.4315 -0.3833,0.1263 -0.3844,0.1232 -0.2768,-0.3323 -0.267,-0.3359 -0.2567,-0.3395 -0.246,-0.3432 -0.2345,-0.3471 -0.4239,0.1253 -0.4251,0.1214 -0.012,0.4187 -0.0238,0.4216 -0.0348,0.4242 -0.0455,0.4267 -0.0557,0.4288 -0.3905,0.1019 -0.3913,0.0989 -0.2554,-0.349 -0.2454,-0.352 -0.235,-0.355 -0.2239,-0.358 -0.2122,-0.3611 -0.431,0.0984 -0.4319,0.0945 -0.0382,0.4171 -0.0502,0.4193 -0.0614,0.4212 -0.0722,0.4229 L 9.9526,50.0195 9.5564,50.0966 9.1597,50.1707 8.9267,49.8064 8.7039,49.4397 8.4917,49.0707 8.2907,48.6993 8.1016,48.3256 7.6653,48.3967 7.2283,48.4639 7.164,48.8778 7.0876,49.2931 6.9998,49.7096 6.9012,50.1272 6.7922,50.5457 6.392,50.5978 5.9914,50.6468 5.7817,50.2686 5.5824,49.8886 5.3938,49.507 5.2165,49.1238 5.0512,48.7389 4.6113,48.7825 4.171,48.8222 4.0808,49.2312 3.9784,49.6408 3.8647,50.051 3.7401,50.4616 3.605,50.8724 3.2023,50.8994 2.7994,50.9231 2.6139,50.5324 2.4388,50.1407 2.2746,49.748 2.1217,49.3544 1.9809,48.9599 1.5391,48.9758 1.0972,48.9877 0.9815,49.3902 0.8536,49.7927 0.7143,50.1949 0.5642,50.5969 0.4036,50.9984 0,51 l -0.4036,-0.0016 -0.1606,-0.4015 -0.1501,-0.402 -0.1393,-0.4022 -0.1279,-0.4025 -0.1157,-0.4025 -0.4419,-0.0119 -0.4418,-0.0159 -0.1408,0.3945 -0.1529,0.3936 -0.1642,0.3927 -0.1751,0.3917 -0.1855,0.3907 -0.4029,-0.0237 -0.4027,-0.027 -0.1351,-0.4108 -0.1246,-0.4106 -0.1137,-0.4102 -0.1024,-0.4096 -0.0902,-0.409 -0.4403,-0.0397 -0.4399,-0.0436 -0.1653,0.3849 -0.1773,0.3832 -0.1886,0.3816 -0.1993,0.38 -0.2097,0.3782 -0.4006,-0.049 -0.4002,-0.0521 -0.109,-0.4185 -0.0986,-0.4176 -0.0878,-0.4165 -0.0764,-0.4153 -0.0643,-0.4139 -0.437,-0.0672 -0.4363,-0.0711 -0.1891,0.3737 -0.201,0.3714 -0.2122,0.369 -0.2228,0.3667 -0.233,0.3643 -0.3967,-0.0741 -0.3962,-0.0771 -0.0825,-0.4246 -0.0722,-0.4229 -0.0614,-0.4212 -0.0502,-0.4193 -0.0382,-0.4171 -0.4319,-0.0945 -0.431,-0.0984 -0.2122,0.3611 -0.2239,0.358 -0.235,0.355 -0.2454,0.352 -0.2554,0.349 -0.3913,-0.0989 -0.3905,-0.1019 -0.0557,-0.4288 -0.0455,-0.4267 -0.0348,-0.4242 -0.0238,-0.4216 -0.012,-0.4187 -0.4251,-0.1214 -0.4239,-0.1253 -0.2345,0.3471 -0.246,0.3432 -0.2567,0.3395 -0.267,0.3359 -0.2768,0.3323 -0.3844,-0.1232 -0.3833,-0.1263 -0.0287,-0.4315 -0.0186,-0.4286 -0.0081,-0.4256 0.0028,-0.4223 0.0143,-0.4186 -0.4167,-0.1478 -0.4152,-0.1517 -0.2558,0.3317 -0.267,0.3271 -0.2776,0.3227 -0.2876,0.3185 -0.2971,0.3142 -0.3759,-0.1471 -0.3746,-0.1501 -0.0015,-0.4324 0.0083,-0.429 0.0186,-0.4253 0.0293,-0.4212 0.0406,-0.4169 -0.4065,-0.1737 -0.405,-0.1774 -0.2761,0.3149 -0.287,0.3097 -0.2973,0.3047 -0.307,0.2997 -0.3163,0.295 -0.3658,-0.1704 -0.3645,-0.1733 0.0256,-0.4317 0.0353,-0.4276 0.0452,-0.4233 0.0557,-0.4185 0.0667,-0.4136 -0.3948,-0.1989 -0.393,-0.2025 -0.2954,0.297 -0.3059,0.2911 -0.3158,0.2854 -0.3252,0.2799 -0.3342,0.2745 -0.3544,-0.1931 -0.3529,-0.1958 0.0527,-0.4292 0.062,-0.4246 0.0718,-0.4196 0.0818,-0.4142 0.0925,-0.4085 -0.3815,-0.2233 -0.3795,-0.2268 -0.3135,0.2779 -0.3235,0.2712 -0.3331,0.265 -0.3422,0.2589 -0.3507,0.253 -0.3417,-0.2149 -0.3399,-0.2176 0.0796,-0.4251 0.0886,-0.4198 0.0979,-0.4142 0.1077,-0.4083 0.118,-0.4019 -0.3668,-0.2469 -0.3645,-0.2501 -0.3302,0.2576 -0.34,0.2505 -0.3491,0.2435 -0.3577,0.2369 -0.366,0.2305 -0.3274,-0.2359 -0.3256,-0.2386 0.1061,-0.4192 0.1148,-0.4134 0.1237,-0.4073 0.1331,-0.4007 0.143,-0.3937 -0.3505,-0.2694 -0.3481,-0.2725 -0.3458,0.2363 -0.355,0.2286 -0.3637,0.2212 -0.3719,0.214 -0.3797,0.207 -0.312,-0.256 -0.31,-0.2585 0.1322,-0.4118 0.1405,-0.4054 0.1491,-0.3987 0.158,-0.3916 0.1674,-0.3839 -0.3329,-0.2909 -0.3303,-0.2938 -0.3599,0.2142 -0.3687,0.2058 -0.3769,0.1979 -0.3846,0.1902 -0.3919,0.1828 -0.2953,-0.2751 -0.2931,-0.2774 0.1578,-0.4027 0.1657,-0.3958 0.1738,-0.3885 0.1823,-0.3809 0.1912,-0.3727 -0.314,-0.3112 -0.3112,-0.314 -0.3727,0.1912 -0.3809,0.1823 -0.3885,0.1738 -0.3958,0.1657 -0.4027,0.1578 -0.2774,-0.2931 -0.2751,-0.2953 0.1828,-0.3919 0.1902,-0.3846 0.1979,-0.3769 0.2058,-0.3687 0.2142,-0.3599 -0.2938,-0.3303 -0.2909,-0.3329 -0.3839,0.1674 -0.3916,0.158 -0.3987,0.1491 -0.4054,0.1405 -0.4118,0.1322 -0.2585,-0.31 -0.256,-0.312 0.207,-0.3797 0.214,-0.3719 0.2212,-0.3637 0.2286,-0.355 0.2363,-0.3458 -0.2725,-0.3481 -0.2694,-0.3505 -0.3937,0.143 -0.4007,0.1331 -0.4073,0.1237 -0.4134,0.1148 -0.4192,0.1061 -0.2386,-0.3256 -0.2359,-0.3274 0.2305,-0.366 0.2369,-0.3577 0.2435,-0.3491 0.2505,-0.34 0.2576,-0.3302 -0.2501,-0.3645 -0.2469,-0.3668 -0.4019,0.118 -0.4083,0.1077 -0.4142,0.0979 -0.4198,0.0886 -0.4251,0.0796 -0.2176,-0.3399 -0.2149,-0.3417 0.253,-0.3507 0.2589,-0.3422 0.265,-0.3331 0.2712,-0.3235 0.2779,-0.3135 -0.2268,-0.3795 -0.2233,-0.3815 -0.4085,0.0925 -0.4142,0.0818 -0.4196,0.0718 -0.4246,0.062 -0.4292,0.0527 -0.1958,-0.3529 -0.1931,-0.3544 0.2745,-0.3342 0.2799,-0.3252 0.2854,-0.3158 0.2911,-0.3059 0.297,-0.2954 -0.2025,-0.393 -0.1989,-0.3948 -0.4136,0.0667 -0.4185,0.0557 -0.4233,0.0452 -0.4276,0.0353 -0.4317,0.0256 -0.1733,-0.3645 -0.1704,-0.3658 0.295,-0.3163 0.2997,-0.307 0.3047,-0.2973 0.3097,-0.287 0.3149,-0.2761 -0.1774,-0.405 -0.1737,-0.4065 -0.4169,0.0406 -0.4212,0.0293 -0.4253,0.0186 -0.429,0.0083 -0.4324,-0.0015 -0.1501,-0.3746 -0.1471,-0.3759 0.3142,-0.2971 0.3185,-0.2876 0.3227,-0.2776 0.3271,-0.267 0.3317,-0.2558 -0.1517,-0.4152 -0.1478,-0.4167 -0.4186,0.0143 -0.4223,0.0028 -0.4256,-0.0081 -0.4286,-0.0186 -0.4315,-0.0287 -0.1263,-0.3833 -0.1232,-0.3844 0.3323,-0.2768 0.3359,-0.267 0.3395,-0.2567 0.3432,-0.246 0.3471,-0.2345 -0.1253,-0.4239 -0.1214,-0.4251 -0.4187,-0.012 -0.4216,-0.0238 -0.4242,-0.0348 -0.4267,-0.0455 -0.4288,-0.0557 -0.1019,-0.3905 -0.0989,-0.3913 0.349,-0.2554 0.352,-0.2454 0.355,-0.235 0.358,-0.2239 0.3611,-0.2122 -0.0984,-0.431 -0.0945,-0.4319 -0.4171,-0.0382 -0.4193,-0.0502 -0.4212,-0.0614 -0.4229,-0.0722 -0.4246,-0.0825 -0.0771,-0.3962 -0.0741,-0.3967 0.3643,-0.233 0.3667,-0.2228 0.369,-0.2122 0.3714,-0.201 0.3737,-0.1891 -0.0711,-0.4363 -0.0672,-0.437 -0.4139,-0.0643 -0.4153,-0.0764 -0.4165,-0.0878 -0.4176,-0.0986 -0.4185,-0.109 -0.0521,-0.4002 -0.049,-0.4006 0.3782,-0.2097 0.38,-0.1993 0.3816,-0.1886 0.3832,-0.1773 0.3849,-0.1653 -0.0436,-0.4399 -0.0397,-0.4403 -0.409,-0.0902 -0.4096,-0.1024 -0.4102,-0.1137 -0.4106,-0.1246 -0.4108,-0.1351 -0.027,-0.4027 -0.0237,-0.4029 0.3907,-0.1855 0.3917,-0.1751 0.3927,-0.1642 0.3936,-0.1529 0.3945,-0.1408 -0.0159,-0.4418 -0.0119,-0.4419 -0.4025,-0.1157 -0.4025,-0.1279 -0.4022,-0.1393 -0.402,-0.1501 L -50.9984,0.4036 -51,0 l 0.0016,-0.4036 0.4015,-0.1606 0.402,-0.1501 0.4022,-0.1393 0.4025,-0.1279 0.4025,-0.1157 0.0119,-0.4419 0.0159,-0.4418 -0.3945,-0.1408 -0.3936,-0.1529 -0.3927,-0.1642 -0.3917,-0.1751 -0.3907,-0.1855 0.0237,-0.4029 0.027,-0.4027 0.4108,-0.1351 0.4106,-0.1246 0.4102,-0.1137 0.4096,-0.1024 0.409,-0.0902 0.0397,-0.4403 0.0436,-0.4399 -0.3849,-0.1653 -0.3832,-0.1773 -0.3816,-0.1886 -0.38,-0.1993 -0.3782,-0.2097 0.049,-0.4006 0.0521,-0.4002 0.4185,-0.109 0.4176,-0.0986 0.4165,-0.0878 0.4153,-0.0764 0.4139,-0.0643 0.0672,-0.437 0.0711,-0.4363 -0.3737,-0.1891 -0.3714,-0.201 -0.369,-0.2122 -0.3667,-0.2228 -0.3643,-0.233 0.0741,-0.3967 0.0771,-0.3962 0.4246,-0.0825 0.4229,-0.0722 0.4212,-0.0614 0.4193,-0.0502 0.4171,-0.0382 0.0945,-0.4319 0.0984,-0.431 -0.3611,-0.2122 -0.358,-0.2239 -0.355,-0.235 -0.352,-0.2454 -0.349,-0.2554 0.0989,-0.3913 0.1019,-0.3905 0.4288,-0.0557 0.4267,-0.0455 0.4242,-0.0348 0.4216,-0.0238 0.4187,-0.012 0.1214,-0.4251 0.1253,-0.4239 -0.3471,-0.2345 -0.3432,-0.246 -0.3395,-0.2567 -0.3359,-0.267 -0.3323,-0.2768 0.1232,-0.3844 0.1263,-0.3833 0.4315,-0.0287 0.4286,-0.0186 0.4256,-0.0081 0.4223,0.0028 0.4186,0.0143 0.1478,-0.4167 0.1517,-0.4152 -0.3317,-0.2558 -0.3271,-0.267 -0.3227,-0.2776 -0.3185,-0.2876 -0.3142,-0.2971 0.1471,-0.3759 0.1501,-0.3746 0.4324,-0.0015 0.429,0.0083 0.4253,0.0186 0.4212,0.0293 0.4169,0.0406 0.1737,-0.4065 0.1774,-0.405 -0.3149,-0.2761 -0.3097,-0.287 -0.3047,-0.2973 -0.2997,-0.307 -0.295,-0.3163 0.1704,-0.3658 0.1733,-0.3645 0.4317,0.0256 0.4276,0.0353 0.4233,0.0452 0.4185,0.0557 0.4136,0.0667 0.1989,-0.3948 0.2025,-0.393 -0.297,-0.2954 -0.2911,-0.3059 -0.2854,-0.3158 -0.2799,-0.3252 -0.2745,-0.3342 0.1931,-0.3544 0.1958,-0.3529 0.4292,0.0527 0.4246,0.062 0.4196,0.0718 0.4142,0.0818 0.4085,0.0925 0.2233,-0.3815 0.2268,-0.3795 -0.2779,-0.3135 -0.2712,-0.3235 -0.265,-0.3331 -0.2589,-0.3422 -0.253,-0.3507 0.2149,-0.3417 0.2176,-0.3399 0.4251,0.0796 0.4198,0.0886 0.4142,0.0979 0.4083,0.1077 0.4019,0.118 0.2469,-0.3668 0.2501,-0.3645 -0.2576,-0.3302 -0.2505,-0.34 -0.2435,-0.3491 -0.2369,-0.3577 -0.2305,-0.366 0.2359,-0.3274 0.2386,-0.3256 0.4192,0.1061 0.4134,0.1148 0.4073,0.1237 0.4007,0.1331 0.3937,0.143 0.2694,-0.3505 0.2725,-0.3481 -0.2363,-0.3458 -0.2286,-0.355 -0.2212,-0.3637 -0.214,-0.3719 -0.207,-0.3797 0.256,-0.312 0.2585,-0.31 0.4118,0.1322 0.4054,0.1405 0.3987,0.1491 0.3916,0.158 0.3839,0.1674 0.2909,-0.3329 0.2938,-0.3303 -0.2142,-0.3599 -0.2058,-0.3687 -0.1979,-0.3769 -0.1902,-0.3846 -0.1828,-0.3919 0.2751,-0.2953 0.2774,-0.2931 0.4027,0.1578 0.3958,0.1657 0.3885,0.1738 0.3809,0.1823 0.3727,0.1912 0.3112,-0.314 0.314,-0.3112 -0.1912,-0.3727 -0.1823,-0.3809 -0.1738,-0.3885 -0.1657,-0.3958 -0.1578,-0.4027 0.2931,-0.2774 0.2953,-0.2751 0.3919,0.1828 0.3846,0.1902 0.3769,0.1979 0.3687,0.2058 0.3599,0.2142 0.3303,-0.2938 0.3329,-0.2909 -0.1674,-0.3839 -0.158,-0.3916 -0.1491,-0.3987 -0.1405,-0.4054 -0.1322,-0.4118 0.31,-0.2585 0.312,-0.256 0.3797,0.207 0.3719,0.214 0.3637,0.2212 0.355,0.2286 0.3458,0.2363 0.3481,-0.2725 0.3505,-0.2694 -0.143,-0.3937 -0.1331,-0.4007 -0.1237,-0.4073 -0.1148,-0.4134 -0.1061,-0.4192 0.3256,-0.2386 0.3274,-0.2359 0.366,0.2305 0.3577,0.2369 0.3491,0.2435 0.34,0.2505 0.3302,0.2576 0.3645,-0.2501 0.3668,-0.2469 -0.118,-0.4019 -0.1077,-0.4083 -0.0979,-0.4142 -0.0886,-0.4198 -0.0796,-0.4251 0.3399,-0.2176 0.3417,-0.2149 0.3507,0.253 0.3422,0.2589 0.3331,0.265 0.3235,0.2712 0.3135,0.2779 0.3795,-0.2268 0.3815,-0.2233 -0.0925,-0.4085 -0.0818,-0.4142 -0.0718,-0.4196 -0.062,-0.4246 -0.0527,-0.4292 0.3529,-0.1958 0.3544,-0.1931 0.3342,0.2745 0.3252,0.2799 0.3158,0.2854 0.3059,0.2911 0.2954,0.297 0.393,-0.2025 0.3948,-0.1989 -0.0667,-0.4136 -0.0557,-0.4185 -0.0452,-0.4233 -0.0353,-0.4276 -0.0256,-0.4317 0.3645,-0.1733 0.3658,-0.1704 0.3163,0.295 0.307,0.2997 0.2973,0.3047 0.287,0.3097 0.2761,0.3149 0.405,-0.1774 0.4065,-0.1737 -0.0406,-0.4169 -0.0293,-0.4212 -0.0186,-0.4253 -0.0083,-0.429 0.0015,-0.4324 0.3746,-0.1501 0.3759,-0.1471 0.2971,0.3142 0.2876,0.3185 0.2776,0.3227 0.267,0.3271 0.2558,0.3317 0.4152,-0.1517 0.4167,-0.1478 -0.0143,-0.4186 -0.0028,-0.4223 0.0081,-0.4256 0.0186,-0.4286 0.0287,-0.4315 0.3833,-0.1263 0.3844,-0.1232 0.2768,0.3323 0.267,0.3359 0.2567,0.3395 0.246,0.3432 0.2345,0.3471 0.4239,-0.1253 0.4251,-0.1214 0.012,-0.4187 0.0238,-0.4216 0.0348,-0.4242 0.0455,-0.4267 0.0557,-0.4288 0.3905,-0.1019 0.3913,-0.0989 0.2554,0.349 0.2454,0.352 0.235,0.355 0.2239,0.358 0.2122,0.3611 0.431,-0.0984 0.4319,-0.0945 0.0382,-0.4171 0.0502,-0.4193 0.0614,-0.4212 0.0722,-0.4229 0.0825,-0.4246 0.3962,-0.0771 0.3967,-0.0741 0.233,0.3643 0.2228,0.3667 0.2122,0.369 0.201,0.3714 0.1891,0.3737 0.4363,-0.0711 0.437,-0.0672 0.0643,-0.4139 0.0764,-0.4153 0.0878,-0.4165 0.0986,-0.4176 0.109,-0.4185 0.4002,-0.0521 0.4006,-0.049 0.2097,0.3782 0.1993,0.38 0.1886,0.3816 0.1773,0.3832 0.1653,0.3849 0.4399,-0.0436 0.4403,-0.0397 0.0902,-0.409 0.1024,-0.4096 0.1137,-0.4102 0.1246,-0.4106 0.1351,-0.4108 0.4027,-0.027 0.4029,-0.0237 0.1855,0.3907 0.1751,0.3917 0.1642,0.3927 0.1529,0.3936 0.1408,0.3945 0.4418,-0.0159 0.4419,-0.0119 0.1157,-0.4025 0.1279,-0.4025 0.1393,-0.4022 0.1501,-0.402 0.1606,-0.4015 L 0,-51 l 0.4036,0.0016 0.1606,0.4015 0.1501,0.402 0.1393,0.4022 0.1279,0.4025 0.1157,0.4025 0.4419,0.0119 0.4418,0.0159 0.1408,-0.3945 0.1529,-0.3936 0.1642,-0.3927 0.1751,-0.3917 0.1855,-0.3907 0.4029,0.0237 0.4027,0.027 0.1351,0.4108 0.1246,0.4106 0.1137,0.4102 0.1024,0.4096 0.0902,0.409 0.4403,0.0397 0.4399,0.0436 0.1653,-0.3849 0.1773,-0.3832 0.1886,-0.3816 0.1993,-0.38 0.2097,-0.3782 0.4006,0.049 0.4002,0.0521 0.109,0.4185 0.0986,0.4176 0.0878,0.4165 0.0764,0.4153 0.0643,0.4139 0.437,0.0672 0.4363,0.0711 0.1891,-0.3737 0.201,-0.3714 0.2122,-0.369 0.2228,-0.3667 0.233,-0.3643 0.3967,0.0741 0.3962,0.0771 0.0825,0.4246 0.0722,0.4229 0.0614,0.4212 0.0502,0.4193 0.0382,0.4171 0.4319,0.0945 0.431,0.0984 0.2122,-0.3611 0.2239,-0.358 0.235,-0.355 0.2454,-0.352 0.2554,-0.349 0.3913,0.0989 0.3905,0.1019 0.0557,0.4288 0.0455,0.4267 0.0348,0.4242 0.0238,0.4216 0.012,0.4187 0.4251,0.1214 0.4239,0.1253 0.2345,-0.3471 0.246,-0.3432 0.2567,-0.3395 0.267,-0.3359 0.2768,-0.3323 0.3844,0.1232 0.3833,0.1263 0.0287,0.4315 0.0186,0.4286 0.0081,0.4256 -0.0028,0.4223 -0.0143,0.4186 0.4167,0.1478 0.4152,0.1517 0.2558,-0.3317 0.267,-0.3271 0.2776,-0.3227 0.2876,-0.3185 0.2971,-0.3142 0.3759,0.1471 0.3746,0.1501 0.0015,0.4324 -0.0083,0.429 -0.0186,0.4253 -0.0293,0.4212 -0.0406,0.4169 0.4065,0.1737 0.405,0.1774 0.2761,-0.3149 0.287,-0.3097 0.2973,-0.3047 0.307,-0.2997 0.3163,-0.295 0.3658,0.1704 0.3645,0.1733 -0.0256,0.4317 -0.0353,0.4276 -0.0452,0.4233 -0.0557,0.4185 -0.0667,0.4136 0.3948,0.1989 0.393,0.2025 0.2954,-0.297 0.3059,-0.2911 0.3158,-0.2854 0.3252,-0.2799 0.3342,-0.2745 0.3544,0.1931 0.3529,0.1958 -0.0527,0.4292 -0.062,0.4246 -0.0718,0.4196 -0.0818,0.4142 -0.0925,0.4085 0.3815,0.2233 0.3795,0.2268 0.3135,-0.2779 0.3235,-0.2712 0.3331,-0.265 0.3422,-0.2589 0.3507,-0.253 0.3417,0.2149 0.3399,0.2176 -0.0796,0.4251 -0.0886,0.4198 -0.0979,0.4142 -0.1077,0.4083 -0.118,0.4019 0.3668,0.2469 0.3645,0.2501 0.3302,-0.2576 0.34,-0.2505 0.3491,-0.2435 0.3577,-0.2369 0.366,-0.2305 0.3274,0.2359 0.3256,0.2386 -0.1061,0.4192 -0.1148,0.4134 -0.1237,0.4073 -0.1331,0.4007 -0.143,0.3937 0.3505,0.2694 0.3481,0.2725 0.3458,-0.2363 0.355,-0.2286 0.3637,-0.2212 0.3719,-0.214 0.3797,-0.207 0.312,0.256 0.31,0.2585 -0.1322,0.4118 -0.1405,0.4054 -0.1491,0.3987 -0.158,0.3916 -0.1674,0.3839 0.3329,0.2909 0.3303,0.2938 0.3599,-0.2142 0.3687,-0.2058 0.3769,-0.1979 0.3846,-0.1902 0.3919,-0.1828 0.2953,0.2751 0.2931,0.2774 -0.1578,0.4027 -0.1657,0.3958 -0.1738,0.3885 -0.1823,0.3809 -0.1912,0.3727 0.314,0.3112 0.3112,0.314 0.3727,-0.1912 0.3809,-0.1823 0.3885,-0.1738 0.3958,-0.1657 0.4027,-0.1578 0.2774,0.2931 0.2751,0.2953 -0.1828,0.3919 -0.1902,0.3846 -0.1979,0.3769 -0.2058,0.3687 -0.2142,0.3599 0.2938,0.3303 0.2909,0.3329 0.3839,-0.1674 0.3916,-0.158 0.3987,-0.1491 0.4054,-0.1405 0.4118,-0.1322 0.2585,0.31 0.256,0.312 -0.207,0.3797 -0.214,0.3719 -0.2212,0.3637 -0.2286,0.355 -0.2363,0.3458 0.2725,0.3481 0.2694,0.3505 0.3937,-0.143 0.4007,-0.1331 0.4073,-0.1237 0.4134,-0.1148 0.4192,-0.1061 0.2386,0.3256 0.2359,0.3274 -0.2305,0.366 -0.2369,0.3577 -0.2435,0.3491 -0.2505,0.34 -0.2576,0.3302 0.2501,0.3645 0.2469,0.3668 0.4019,-0.118 0.4083,-0.1077 0.4142,-0.0979 0.4198,-0.0886 0.4251,-0.0796 0.2176,0.3399 0.2149,0.3417 -0.253,0.3507 -0.2589,0.3422 -0.265,0.3331 -0.2712,0.3235 -0.2779,0.3135 0.2268,0.3795 0.2233,0.3815 0.4085,-0.0925 0.4142,-0.0818 0.4196,-0.0718 0.4246,-0.062 0.4292,-0.0527 0.1958,0.3529 0.1931,0.3544 -0.2745,0.3342 -0.2799,0.3252 -0.2854,0.3158 -0.2911,0.3059 -0.297,0.2954 0.2025,0.393 0.1989,0.3948 0.4136,-0.0667 0.4185,-0.0557 0.4233,-0.0452 0.4276,-0.0353 0.4317,-0.0256 0.1733,0.3645 0.1704,0.3658 -0.295,0.3163 -0.2997,0.307 -0.3047,0.2973 -0.3097,0.287 -0.3149,0.2761 0.1774,0.405 0.1737,0.4065 0.4169,-0.0406 0.4212,-0.0293 0.4253,-0.0186 0.429,-0.0083 0.4324,0.0015 0.1501,0.3746 0.1471,0.3759 -0.3142,0.2971 -0.3185,0.2876 -0.3227,0.2776 -0.3271,0.267 -0.3317,0.2558 0.1517,0.4152 0.1478,0.4167 0.4186,-0.0143 0.4223,-0.0028 0.4256,0.0081 0.4286,0.0186 0.4315,0.0287 0.1263,0.3833 0.1232,0.3844 -0.3323,0.2768 -0.3359,0.267 -0.3395,0.2567 -0.3432,0.246 -0.3471,0.2345 0.1253,0.4239 0.1214,0.4251 0.4187,0.012 0.4216,0.0238 0.4242,0.0348 0.4267,0.0455 0.4288,0.0557 0.1019,0.3905 0.0989,0.3913 -0.349,0.2554 -0.352,0.2454 -0.355,0.235 -0.358,0.2239 -0.3611,0.2122 0.0984,0.431 0.0945,0.4319 0.4171,0.0382 0.4193,0.0502 0.4212,0.0614 0.4229,0.0722 0.4246,0.0825 0.0771,0.3962 0.0741,0.3967 -0.3643,0.233 -0.3667,0.2228 -0.369,0.2122 -0.3714,0.201 -0.3737,0.1891 0.0711,0.4363 0.0672,0.437 0.4139,0.0643 0.4153,0.0764 0.4165,0.0878 0.4176,0.0986 0.4185,0.109 0.0521,0.4002 0.049,0.4006 -0.3782,0.2097 -0.38,0.1993 -0.3816,0.1886 -0.3832,0.1773 -0.3849,0.1653 0.0436,0.4399 0.0397,0.4403 0.409,0.0902 0.4096,0.1024 0.4102,0.1137 0.4106,0.1246 0.4108,0.1351 0.027,0.4027 0.0237,0.4029 -0.3907,0.1855 -0.3917,0.1751 -0.3927,0.1642 -0.3936,0.1529 -0.3945,0.1408 0.0159,0.4418 z"
           id="path79" />
        <path
           style="vector-effect:non-scaling-stroke;fill:none;stroke:#000000;stroke-width:0.264583;stroke-dasharray:none;-inkscape-stroke:hairline"
           d="M -1.0471976,0 H 1.0471976 M 0,-1.0471976 v 2.0943952"
           id="path80" />
      </g>
      <path
         id="path3"
         style="vector-effect:non-scaling-stroke;fill:none;stroke:#000000;stroke-width:0.0793585;stroke-linecap:square;stroke-linejoin:round;stroke-dasharray:0.634871, 0.0793585;-inkscape-stroke:hairline;paint-order:stroke fill markers"
         d="m 282.38318,113.22643 a 3.9000001,3.9000001 0 0 1 -3.9,3.9 3.9000001,3.9000001 0 0 1 -3.9,-3.9 3.9000001,3.9000001 0 0 1 3.9,-3.9 3.9000001,3.9000001 0 0 1 3.9,3.9 z" />
    </g>
  </g>
</svg>
